<svg width="332" height="342" viewBox="0 0 332 342" fill="none" xmlns="http://www.w3.org/2000/svg">
<path d="M9.62164 254.14L155.851 338.537C158.676 340.166 161.88 341.024 165.142 341.024C168.404 341.024 171.608 340.166 174.434 338.537L327.716 250.341C328.897 249.658 329.879 248.68 330.566 247.503C331.253 246.325 331.621 244.989 331.634 243.625C331.647 242.262 331.304 240.919 330.64 239.729C329.975 238.539 329.011 237.542 327.844 236.838L177.048 146.13C175.834 145.405 174.445 145.023 173.031 145.023C171.616 145.023 170.228 145.405 169.013 146.13L9.58337 240.637C8.41131 241.334 7.44118 242.324 6.76866 243.51C6.09613 244.696 5.74446 246.037 5.74832 247.4C5.75219 248.763 6.11145 250.102 6.79068 251.284C7.46991 252.466 8.44565 253.45 9.62164 254.14Z" fill="#DD1E5C"/>
<path d="M254.212 54.2487L160.06 0.785372C159.142 0.270451 158.108 0 157.056 0C156.004 0 154.97 0.270451 154.052 0.785372V0.785372L147.675 4.16429L150.902 5.13333C150.839 5.47845 150.805 5.82816 150.8 6.17888L148.989 195.118C148.964 197.767 149.65 200.375 150.976 202.669C152.301 204.963 154.218 206.86 156.527 208.162L251.088 261.536C251.278 261.639 251.474 261.733 251.674 261.816L250.488 264.762L256.406 261.893C256.799 261.735 257.175 261.539 257.529 261.306V261.306C258.376 260.751 259.072 259.995 259.555 259.105C260.038 258.215 260.293 257.219 260.296 256.206V64.7297C260.299 62.6012 259.737 60.5101 258.668 58.669C257.6 56.828 256.062 55.3029 254.212 54.2487V54.2487Z" fill="#441F54"/>
<path style="mix-blend-mode:multiply" opacity="0.62" d="M132.944 252.151L66.3787 286.654C66.3787 286.654 106.874 312.972 133.39 325.327L215.261 276.556" fill="url(#paint0_linear_2_206)"/>
<path d="M150.507 211.03L245.068 264.405C246.01 264.937 247.076 265.213 248.159 265.205C249.242 265.198 250.304 264.907 251.24 264.361C252.175 263.816 252.951 263.035 253.491 262.096C254.03 261.157 254.314 260.094 254.314 259.011V67.6114C254.315 65.4816 253.752 63.3896 252.681 61.5485C251.61 59.7073 250.07 58.1829 248.218 57.1304L154.027 3.67976C153.092 3.14879 152.035 2.87005 150.96 2.8709C149.885 2.87176 148.828 3.15219 147.894 3.68464C146.96 4.21709 146.181 4.98326 145.632 5.90789C145.084 6.83252 144.786 7.88382 144.767 8.95852L142.969 197.923C142.932 200.583 143.613 203.204 144.939 205.51C146.266 207.817 148.189 209.723 150.507 211.03Z" fill="#83469D"/>
<path d="M149.614 199.733L246.687 254.523V72.4439L151.336 18.3302L149.614 199.733Z" fill="#E2F2EE"/>
<path d="M220.643 151.472V191.139L237.338 201.659V161.52L220.643 151.472Z" fill="#DD1E5C"/>
<path d="M221.957 160.525V168.443L225.566 170.828V162.82L221.957 160.525Z" fill="#83469D"/>
<path d="M227.033 163.318V171.236L230.629 173.62V165.613L227.033 163.318Z" fill="#83469D"/>
<path d="M232.096 166.288V174.207L235.706 176.591V168.584L232.096 166.288Z" fill="#83469D"/>
<path d="M221.957 170.828V178.746L225.566 181.143V173.123L221.957 170.828Z" fill="#83469D"/>
<path d="M227.033 173.62V181.538L230.629 183.935V175.915L227.033 173.62Z" fill="#83469D"/>
<path d="M232.096 176.591V184.522L235.706 186.906V178.886L232.096 176.591Z" fill="#83469D"/>
<path d="M221.957 181.105V189.023L225.566 191.407V183.4L221.957 181.105Z" fill="#83469D"/>
<path d="M227.033 183.897V191.815L230.629 194.2V186.192L227.033 183.897Z" fill="#83469D"/>
<path d="M232.096 186.868V194.786L235.706 197.183V189.163L232.096 186.868Z" fill="#83469D"/>
<path d="M202.073 178.21C204.112 179.439 205.815 181.156 207.026 183.206C208.237 185.256 208.919 187.575 209.011 189.954C209.011 190.107 209.011 190.255 209.011 190.4C208.967 192.145 208.433 193.843 207.47 195.3C206.507 196.756 205.154 197.913 203.565 198.637C201.568 199.32 199.405 199.346 197.392 198.713C192.673 197.438 186.831 194.289 184.637 189.699C184.069 188.511 183.749 187.22 183.696 185.905C183.644 184.59 183.86 183.277 184.331 182.048C185.798 178.223 189.777 176.157 193.706 175.877C196.672 175.742 199.604 176.56 202.073 178.21V178.21Z" fill="#F8951D"/>
<path d="M206.894 182.979L204.776 183.872C203.975 183.682 203.229 183.306 202.599 182.774C201.97 182.243 201.475 181.57 201.154 180.811C200.95 180.314 200.121 180.531 200.338 181.041C200.941 182.521 202.099 183.706 203.565 184.343L202.863 184.598C200.567 185.414 197.762 186.396 195.313 185.873C194.864 185.821 194.433 185.664 194.055 185.415C193.678 185.167 193.363 184.834 193.136 184.443C192.91 184.052 192.778 183.613 192.75 183.162C192.723 182.711 192.801 182.26 192.979 181.844C193.91 179.893 196.473 178.988 198.361 178.338C199.228 178.045 200.096 177.777 200.988 177.56C198.754 176.339 196.222 175.769 193.68 175.915C189.752 176.196 185.772 178.287 184.306 182.086C183.834 183.316 183.618 184.628 183.671 185.943C183.723 187.258 184.044 188.549 184.612 189.737C186.831 194.327 192.672 197.387 197.366 198.752C199.379 199.385 201.542 199.358 203.539 198.675C205.128 197.951 206.482 196.795 207.445 195.338C208.408 193.881 208.942 192.184 208.985 190.438C208.985 190.285 208.985 190.136 208.985 189.992C208.983 187.501 208.256 185.065 206.894 182.979V182.979Z" fill="#393B5B"/>
<path d="M188.897 192.478C188.489 192.172 162.266 192.874 158.172 249.41L142.867 240.612C140.034 241.922 137.676 244.077 136.117 246.779C134.557 249.482 133.872 252.601 134.155 255.709C134.934 266.929 169.46 285.609 184.267 280.585C199.075 275.561 192.532 240.153 192.532 240.153L201.154 219.892" fill="#393B5B"/>
<path d="M187.596 266.751C187.596 266.751 203.45 272.08 205.886 268.905C208.322 265.731 219.827 240.586 213.092 232.413C206.358 224.24 191.856 232.413 187.15 236.238" fill="#393B5B"/>
<path d="M203.935 269.658C205.886 268.918 214.38 272.208 215.758 271.417C217.135 270.627 217.48 280.98 207.2 278.507C200.829 276.938 194.681 274.578 188.897 271.481C188.897 271.481 191.55 263.831 195.657 263.346" fill="#393B5B"/>
<path d="M231.255 182.979L230.693 183.604V183.132C231.059 182.481 231.486 181.866 231.969 181.296C232.133 181.102 232.25 180.873 232.311 180.626C232.371 180.379 232.372 180.121 232.315 179.874C232.258 179.626 232.144 179.395 231.982 179.199C231.82 179.004 231.615 178.848 231.382 178.746L231.497 178.644C232.964 177.28 230.757 175.086 229.303 176.451L228.13 177.509C227.838 177.219 227.451 177.045 227.04 177.019C226.63 176.993 226.224 177.118 225.898 177.369C225.094 177.994 224.099 178.567 223.73 179.562C223.485 180.74 223.442 181.952 223.602 183.145V185.861C223.334 185.376 223.054 184.892 222.76 184.433C221.689 182.762 219.023 184.28 220.069 186.001C220.881 187.315 221.577 188.697 222.148 190.132L222.276 190.476C222.097 191.433 221.906 192.376 221.689 193.333C221.548 194.31 221.344 195.277 221.077 196.227C220.788 196.439 220.595 196.755 220.538 197.108C220.48 197.461 220.564 197.822 220.771 198.114C220.868 198.312 221.008 198.486 221.181 198.623C221.354 198.76 221.556 198.856 221.771 198.905C221.986 198.954 222.21 198.954 222.425 198.906C222.64 198.857 222.842 198.761 223.015 198.624C223.326 198.844 223.701 198.952 224.081 198.932C224.461 198.911 224.823 198.762 225.107 198.509C225.433 198.622 225.788 198.622 226.115 198.509C226.326 198.827 226.651 199.053 227.023 199.141C227.394 199.228 227.786 199.171 228.117 198.981C229.533 198.216 229.852 196.023 230.209 194.608C230.73 192.707 230.936 190.735 230.821 188.768C230.821 188.768 230.821 188.679 230.821 188.628C231.543 187.414 232.399 186.285 233.372 185.261C234.839 183.719 232.645 181.513 231.255 182.979Z" fill="#F8951D"/>
<path d="M225.056 183.349L225.515 183.476C225.497 182.832 225.54 182.187 225.643 181.551C225.911 180.034 227.339 178.695 228.398 177.637C228.443 177.583 228.467 177.514 228.464 177.444C228.461 177.374 228.431 177.307 228.382 177.257C228.332 177.208 228.265 177.178 228.195 177.175C228.125 177.172 228.056 177.196 228.002 177.241C226.827 178.248 225.875 179.491 225.209 180.888C224.971 181.672 224.872 182.492 224.916 183.311L225.056 183.349Z" fill="#393B5B"/>
<path d="M231.14 178.287C230.311 179.562 229.15 180.493 228.334 181.704C227.859 182.526 227.58 183.447 227.518 184.394C227.705 184.513 227.883 184.641 228.053 184.777C228.139 183.558 228.583 182.391 229.329 181.423C230.157 180.521 230.928 179.567 231.637 178.567C231.829 178.261 231.344 177.981 231.14 178.287Z" fill="#393B5B"/>
<path d="M230.298 183.642C229.932 184.433 229.601 185.236 229.303 186.052L229.507 186.345C229.589 186.467 229.637 186.607 229.648 186.753C229.979 185.797 230.362 184.853 230.783 183.923C230.936 183.642 230.451 183.362 230.298 183.642Z" fill="#393B5B"/>
<path d="M203.565 198.65C203.427 199.755 203.591 200.877 204.04 201.896C204.489 202.916 205.207 203.794 206.116 204.438C209.215 206.351 222.339 191.152 222.339 191.152C222.339 191.152 228.372 190.668 229.584 198.038C230.796 205.407 211.332 223.411 201.154 224.674C190.976 225.936 183.655 215.009 183.655 215.009C183.655 215.009 185.02 193.881 191.231 192.465" fill="#393B5B"/>
<path d="M9.43042 175.341L15.2337 178.21L18.6263 174.972L23.473 169.425L14.0348 167.64L9.43042 175.341Z" fill="#5B356B"/>
<path d="M86.199 47.6057L54.1727 62.7534L49.5939 76.6388L2.46642 102.28C1.76064 102.654 1.18513 103.234 0.816141 103.942C0.447152 104.65 0.302104 105.453 0.400207 106.246L9.32828 175.354L96.7086 124.352L91.4793 65.3928C91.3517 62.9447 90.2038 54.236 89.4641 49.4673C89.4141 49.1077 89.2822 48.7644 89.0786 48.4638C88.875 48.1632 88.605 47.9133 88.2896 47.7335C87.9742 47.5536 87.6216 47.4486 87.2592 47.4264C86.8967 47.4043 86.534 47.4656 86.199 47.6057V47.6057Z" fill="#441F54"/>
<path d="M99.4764 53.3817L64.7334 71.3346L60.1036 82.8101L17.3636 107.317C16.7204 107.685 16.1851 108.216 15.8113 108.856C15.4375 109.496 15.2383 110.222 15.2336 110.964V178.198L102.614 127.195V57.4109L102.435 55.1158C102.415 54.7776 102.311 54.4498 102.133 54.1612C101.956 53.8725 101.71 53.632 101.418 53.4606C101.126 53.2893 100.796 53.1925 100.457 53.1787C100.118 53.165 99.7817 53.2347 99.4764 53.3817V53.3817Z" fill="#DD1E5C"/>
<path d="M125.151 261.816C126.875 262.517 128.711 262.901 130.572 262.951C131.04 262.948 131.5 262.822 131.904 262.586C132.308 262.349 132.643 262.01 132.875 261.603C133.106 261.195 133.226 260.734 133.223 260.266C133.219 259.797 133.092 259.338 132.855 258.935V258.935C132.639 258.124 132.654 257.268 132.9 256.466C133.146 255.664 133.612 254.946 134.245 254.395C135.099 253.771 137.306 254.701 138.785 255.441C139.225 255.658 139.717 255.75 140.205 255.705C140.694 255.66 141.16 255.48 141.553 255.186L145.583 252.189C145.937 251.926 146.22 251.578 146.404 251.178C146.589 250.778 146.671 250.337 146.642 249.897C146.613 249.457 146.474 249.032 146.237 248.659C146.001 248.287 145.676 247.979 145.29 247.765C140.392 245.036 131.962 240.574 130.495 241.39C128.403 242.665 122.064 253.872 122.039 256.754C122.12 258.442 122.867 260.029 124.118 261.166C124.408 261.459 124.761 261.681 125.151 261.816V261.816Z" fill="#393B5B"/>
<path d="M204.215 180.748C203.944 180.515 203.612 180.365 203.259 180.314C203.118 180.314 202.94 180.314 202.914 180.505C202.896 180.611 202.896 180.719 202.914 180.824C202.895 180.862 202.885 180.903 202.885 180.945C202.885 180.987 202.895 181.029 202.914 181.066C203.08 181.382 203.338 181.64 203.654 181.806C203.789 181.9 203.957 181.937 204.119 181.908C204.282 181.879 204.426 181.788 204.521 181.653C204.725 181.309 204.47 180.952 204.215 180.748Z" fill="#393B5B"/>
<path d="M199.369 182.839C199.135 182.524 198.803 182.295 198.425 182.189C198.342 182.171 198.256 182.178 198.177 182.209C198.098 182.24 198.03 182.294 197.981 182.363C197.933 182.432 197.905 182.514 197.902 182.598C197.9 182.683 197.922 182.767 197.966 182.839V182.839C197.946 183.031 197.971 183.224 198.037 183.406C198.103 183.587 198.21 183.75 198.348 183.884C198.487 183.985 198.655 184.039 198.827 184.039C198.998 184.039 199.166 183.985 199.305 183.884C199.449 183.753 199.537 183.57 199.549 183.374C199.561 183.179 199.496 182.987 199.369 182.839V182.839Z" fill="#393B5B"/>
<path d="M204.866 149.381C204.866 149.381 213.386 143.847 213.462 143.784C213.539 143.72 207.786 139.334 207.786 139.334L204.47 145.645" fill="#5B356B"/>
<path d="M171.794 82.6571L179.395 77.6971L181.283 87.7319L173.579 86.1763" fill="#5B356B"/>
<path d="M182.342 77.4549C181.935 77.22 181.474 77.095 181.004 77.0924C180.534 77.0898 180.072 77.2095 179.663 77.4399C179.253 77.6703 178.911 78.0033 178.67 78.4061C178.428 78.8089 178.296 79.2677 178.286 79.7372L177.444 122.567C177.444 123.23 177.617 123.883 177.946 124.46C178.274 125.036 178.748 125.518 179.319 125.856L209.457 143.822C210.039 144.173 210.703 144.362 211.382 144.372C212.062 144.381 212.731 144.209 213.322 143.874C213.912 143.539 214.403 143.053 214.744 142.466C215.085 141.879 215.263 141.211 215.261 140.532V98.6592C215.262 97.971 215.079 97.2952 214.728 96.7027C214.378 96.1103 213.875 95.6233 213.271 95.293L182.342 77.4549Z" fill="#441F54"/>
<path d="M174.242 82.7846C173.836 82.5497 173.375 82.4248 172.905 82.4222C172.435 82.4195 171.973 82.5393 171.563 82.7697C171.154 83 170.812 83.333 170.57 83.7359C170.329 84.1387 170.197 84.5975 170.187 85.067L169.345 127.896C169.345 128.56 169.518 129.213 169.846 129.789C170.175 130.366 170.648 130.847 171.22 131.186L201.358 149.215C201.94 149.566 202.604 149.756 203.283 149.765C203.962 149.774 204.632 149.603 205.223 149.268C205.813 148.933 206.304 148.447 206.645 147.859C206.986 147.272 207.164 146.605 207.161 145.926V103.989C207.163 103.301 206.98 102.625 206.629 102.032C206.279 101.44 205.776 100.953 205.172 100.623L174.242 82.7846Z" fill="#83469D"/>
<path d="M187.728 118.844C191.302 118.559 193.832 113.73 193.38 108.058C192.927 102.386 189.663 98.0191 186.089 98.304C182.515 98.589 179.984 103.418 180.437 109.09C180.889 114.762 184.153 119.129 187.728 118.844Z" fill="#DD1E5C"/>
<path d="M186.64 110.033H185.364C184.364 110.033 183.553 110.843 183.553 111.843V128.559C183.553 129.559 184.364 130.37 185.364 130.37H186.64C187.64 130.37 188.451 129.559 188.451 128.559V111.843C188.451 110.843 187.64 110.033 186.64 110.033Z" fill="#DD1E5C"/>
<path d="M203.514 96.619C205.233 96.619 206.626 95.7799 206.626 94.7447C206.626 93.7095 205.233 92.8704 203.514 92.8704C201.795 92.8704 200.402 93.7095 200.402 94.7447C200.402 95.7799 201.795 96.619 203.514 96.619Z" fill="#DD1E5C"/>
<path d="M194.088 61.6059C179.51 58.0994 179.625 74.9685 179.625 74.9685V80.9996C179.517 81.8824 179.6 82.7779 179.867 83.6262C180.223 83.9851 180.652 84.2632 181.126 84.4414C181.599 84.6196 182.105 84.6938 182.609 84.659C183.477 84.659 184.727 84.5187 185.16 83.7282C185.398 82.9923 185.472 82.2133 185.377 81.4458C185.288 80.0433 185.262 78.6279 185.313 77.2254C185.403 74.1907 185.67 70.493 187.622 68.0067C188.262 67.2233 189.138 66.6682 190.12 66.4246C191.102 66.1809 192.136 66.2618 193.068 66.6551C200.555 69.1415 200.351 78.1307 200.351 78.1307V94.7065H206.575V77.6971C206.575 77.6971 205.465 64.3472 194.088 61.6059Z" fill="#DD1E5C"/>
<path style="mix-blend-mode:multiply" opacity="0.62" d="M81.6202 215.519L33.5617 246.77C33.5617 246.77 23.3582 245.228 49.8363 257.596L102.308 223.488" fill="url(#paint1_linear_2_206)"/>
<path d="M74.3757 210.176C74.3757 210.176 76.6843 224.1 90.8289 225.362C109.654 227.045 110.624 210.176 110.624 210.176" fill="#DD1E5C"/>
<path opacity="0.37" d="M85.8547 210.418H74.3757C74.3757 210.418 76.4675 223.003 88.852 225.324C87.0963 223.316 85.8961 220.884 85.3704 218.27C84.8446 215.655 85.0116 212.949 85.8547 210.418Z" fill="#393B5B"/>
<path d="M92.4997 215.557C102.509 215.557 110.624 213.148 110.624 210.176C110.624 207.204 102.509 204.795 92.4997 204.795C82.4901 204.795 74.3757 207.204 74.3757 210.176C74.3757 213.148 82.4901 215.557 92.4997 215.557Z" fill="#393B5B"/>
<path d="M109.795 198.369C106.428 197.374 102.576 198.701 99.7825 200.575C98.8743 201.203 98.0209 201.907 97.2316 202.679C96.871 202.838 96.5216 203.021 96.1858 203.227C97.6653 198.866 98.5708 194.391 96.4153 189.992C95.2929 187.697 91.913 184.152 89.2601 186.549C88.7697 187.092 88.3966 187.73 88.1639 188.423C87.9313 189.116 87.8442 189.85 87.9082 190.578C87.9318 192.443 88.1889 194.298 88.6734 196.099C89.1836 198.14 89.8468 200.141 90.3442 202.181C90.4378 202.555 90.5228 202.929 90.5993 203.304C88.9673 201.633 87.2291 200.07 85.3955 198.624C85.0129 198.331 84.6175 198.063 84.1966 197.808C82.3758 195.977 79.9981 194.801 77.4368 194.467C75.8345 194.166 74.1777 194.49 72.807 195.373C72.1954 195.884 71.7482 196.565 71.5213 197.329C71.2945 198.093 71.298 198.907 71.5315 199.67C72.335 203.291 75.5874 206.045 78.623 207.843C81.9882 209.854 85.8022 210.993 89.7193 211.158C89.9058 211.343 90.1576 211.449 90.4208 211.451C94.5155 211.574 98.609 211.171 102.601 210.253C105.956 209.475 110.075 208.442 112.384 205.662C114.692 202.883 113.098 199.351 109.795 198.369Z" fill="#D9E021"/>
<path d="M107.065 202.028C103.545 205.611 98.7746 207.307 94.3999 209.602C94.5381 202.577 93.9784 195.555 92.7291 188.64C92.5888 187.837 91.3643 188.181 91.4536 188.972C92.6811 195.803 93.2238 202.74 93.0734 209.679C87.2659 205.709 81.5307 201.637 75.8678 197.464C75.2045 196.979 74.5923 198.076 75.23 198.56C80.8675 202.717 86.5772 206.772 92.3592 210.724L91.5684 211.222C90.8797 211.668 91.5684 212.765 92.2061 212.318L93.0224 211.808C93.0224 211.936 93.0224 212.076 93.0224 212.203C93.0224 213.02 94.2978 213.02 94.2978 212.203V212.038L94.7443 212.344C95.4202 212.803 96.0197 211.706 95.382 211.247L94.7698 210.826C99.2976 208.391 104.272 206.657 107.932 202.921C108.544 202.347 107.639 201.493 107.065 202.028Z" fill="#393B5B"/>
<defs>
<linearGradient id="paint0_linear_2_206" x1="110.802" y1="303.192" x2="350.677" y2="130.583" gradientUnits="userSpaceOnUse">
<stop stop-opacity="0"/>
<stop offset="1"/>
</linearGradient>
<linearGradient id="paint1_linear_2_206" x1="43.2805" y1="252.406" x2="217.266" y2="126.266" gradientUnits="userSpaceOnUse">
<stop stop-opacity="0"/>
<stop offset="1"/>
</linearGradient>
</defs>
</svg>
